mtllib road.mtl 

g roadStraight

# --- Vértices (Mantidos originais) ---
v -0.9183474 0 0 
v -0.9183474 0 1 
v -1 0 0 
v -1 0 1 
v 0 0 0 
v 0 0 1 
v -0.08165261 0 0 
v -0.08165261 0 1 
v -0.8451352 0.02 0 
v -0.8451352 0.02 1 
v -0.9183474 0.02 0 
v -0.9183474 0.02 1 
v -0.8451352 0.01 0 
v -0.8451352 0.01 1 
v -0.08165261 0.02 0 
v -0.08165261 0.02 1 
v -0.1548649 0.02 0 
v -0.1548649 0.02 1 
v -0.1548649 0.01 0 
v -0.1548649 0.01 1 

# --- Normais ---
vn 0 1 0 
vn 1 0 0 
vn -1 0 0 

# --- Coordenadas de Textura (UVs) CORRIGIDAS ---
# vt 1: Verde (Grama)
vt 0.65 0.35
# vt 2: Cinza Claro/Branco (Meio-fio)
vt 0.10 0.50
# vt 3: Cinza Escuro (Asfalto)
vt 0.65 0.10

# --- Faces mapeadas para os UVs corretos ---

usemtl grass
# Usa vt 1 (Verde)
f 2/1/1 1/1/1 3/1/1 
f 3/1/1 4/1/1 2/1/1 
f 6/1/1 5/1/1 7/1/1 
f 7/1/1 8/1/1 6/1/1 

usemtl grey
# Usa vt 2 (Cinza Claro)
f 10/2/1 9/2/1 11/2/1 
f 11/2/1 12/2/1 10/2/1 
f 13/2/2 9/2/2 10/2/2 
f 10/2/2 14/2/2 13/2/2 
f 11/2/3 1/2/3 2/2/3 
f 2/2/3 12/2/3 11/2/3 
f 7/2/2 15/2/2 16/2/2 
f 16/2/2 8/2/2 7/2/2 
f 16/2/1 15/2/1 17/2/1 
f 17/2/1 18/2/1 16/2/1 
f 17/2/3 19/2/3 20/2/3 
f 20/2/3 18/2/3 17/2/3 

usemtl road
# Usa vt 3 (Cinza Escuro)
f 20/3/1 19/3/1 13/3/1 
f 13/3/1 14/3/1 20/3/1